<mxfile host="Electron" agent="Mozilla/5.0 (X11; Linux x86_64) AppleWebKit/537.36 (KHTML, like Gecko) draw.io/28.1.2 Chrome/138.0.7204.243 Electron/37.4.0 Safari/537.36" version="28.1.2">
  <diagram name="PÃ¡gina-1" id="5IPmdGQjGyKCgLxeSRu4">
    <mxGraphModel dx="1422" dy="858" grid="1" gridSize="10" guides="1" tooltips="1" connect="1" arrows="1" fold="1" page="1" pageScale="1" pageWidth="827" pageHeight="1169" math="0" shadow="0">
      <root>
        <mxCell id="0" />
        <mxCell id="1" parent="0" />
        <mxCell id="WKvs6zyEkFsK-xuoxXmz-19" value="" style="edgeStyle=orthogonalEdgeStyle;rounded=0;orthogonalLoop=1;jettySize=auto;html=1;strokeWidth=6;labelBackgroundColor=none;fontColor=default;arcSize=16;" parent="1" source="WKvs6zyEkFsK-xuoxXmz-5" target="WKvs6zyEkFsK-xuoxXmz-7" edge="1">
          <mxGeometry relative="1" as="geometry" />
        </mxCell>
        <mxCell id="WKvs6zyEkFsK-xuoxXmz-5" value="&lt;p style=&quot;margin:0px;margin-top:4px;text-align:center;&quot;&gt;&lt;b&gt;Pessoa Fisica&lt;/b&gt;&lt;/p&gt;&lt;hr size=&quot;1&quot; style=&quot;border-style:solid;&quot;&gt;&lt;p style=&quot;margin:0px;margin-left:4px;&quot;&gt;+CPF&lt;/p&gt;&lt;p style=&quot;margin:0px;margin-left:4px;&quot;&gt;+ DataNascimento&lt;/p&gt;&lt;hr size=&quot;1&quot; style=&quot;border-style:solid;&quot;&gt;&lt;p style=&quot;margin:0px;margin-left:4px;&quot;&gt;+ method(): Type&lt;/p&gt;" style="verticalAlign=top;align=left;overflow=fill;html=1;whiteSpace=wrap;labelBackgroundColor=none;rounded=0;arcSize=16;" parent="1" vertex="1">
          <mxGeometry x="30" y="200" width="160" height="90" as="geometry" />
        </mxCell>
        <mxCell id="WKvs6zyEkFsK-xuoxXmz-17" style="edgeStyle=orthogonalEdgeStyle;rounded=0;orthogonalLoop=1;jettySize=auto;html=1;strokeWidth=6;labelBackgroundColor=none;fontColor=default;arcSize=16;" parent="1" source="WKvs6zyEkFsK-xuoxXmz-6" target="WKvs6zyEkFsK-xuoxXmz-7" edge="1">
          <mxGeometry relative="1" as="geometry" />
        </mxCell>
        <mxCell id="WKvs6zyEkFsK-xuoxXmz-6" value="&lt;p style=&quot;margin:0px;margin-top:4px;text-align:center;&quot;&gt;&lt;b&gt;Pessoa Juridica&lt;/b&gt;&lt;/p&gt;&lt;hr size=&quot;1&quot; style=&quot;border-style:solid;&quot;&gt;&lt;p style=&quot;margin:0px;margin-left:4px;&quot;&gt;+ CNPJ&lt;/p&gt;&lt;hr size=&quot;1&quot; style=&quot;border-style:solid;&quot;&gt;&lt;p style=&quot;margin:0px;margin-left:4px;&quot;&gt;+ method(): Type&lt;/p&gt;" style="verticalAlign=top;align=left;overflow=fill;html=1;whiteSpace=wrap;labelBackgroundColor=none;rounded=0;arcSize=16;" parent="1" vertex="1">
          <mxGeometry x="230" y="200" width="160" height="90" as="geometry" />
        </mxCell>
        <mxCell id="WKvs6zyEkFsK-xuoxXmz-7" value="&lt;p style=&quot;margin:0px;margin-top:4px;text-align:center;&quot;&gt;&lt;b&gt;Pessoa&lt;/b&gt;&lt;/p&gt;&lt;hr size=&quot;1&quot; style=&quot;border-style:solid;&quot;&gt;&lt;p style=&quot;margin:0px;margin-left:4px;&quot;&gt;+ Nome&lt;br&gt;+Email&lt;/p&gt;&lt;p style=&quot;margin:0px;margin-left:4px;&quot;&gt;+telefone&lt;/p&gt;&lt;hr size=&quot;1&quot; style=&quot;border-style:solid;&quot;&gt;&lt;p style=&quot;margin:0px;margin-left:4px;&quot;&gt;+ method(): Type&lt;/p&gt;" style="verticalAlign=top;align=left;overflow=fill;html=1;whiteSpace=wrap;labelBackgroundColor=none;rounded=0;arcSize=16;" parent="1" vertex="1">
          <mxGeometry x="110" width="180" height="130" as="geometry" />
        </mxCell>
        <mxCell id="WKvs6zyEkFsK-xuoxXmz-49" style="edgeStyle=orthogonalEdgeStyle;rounded=0;orthogonalLoop=1;jettySize=auto;html=1;entryX=0.5;entryY=1;entryDx=0;entryDy=0;labelBackgroundColor=none;fontColor=default;arcSize=16;" parent="1" target="WKvs6zyEkFsK-xuoxXmz-11" edge="1">
          <mxGeometry relative="1" as="geometry">
            <mxPoint x="580" y="790" as="targetPoint" />
            <mxPoint x="170" y="632.5" as="sourcePoint" />
            <Array as="points">
              <mxPoint x="231" y="633" />
              <mxPoint x="231" y="810" />
              <mxPoint x="580" y="810" />
            </Array>
          </mxGeometry>
        </mxCell>
        <mxCell id="1JHfBkIBkiyfCkG7Jsh9-5" style="edgeStyle=orthogonalEdgeStyle;rounded=0;orthogonalLoop=1;jettySize=auto;html=1;entryX=0.044;entryY=1.044;entryDx=0;entryDy=0;entryPerimeter=0;strokeWidth=6;labelBackgroundColor=none;fontColor=default;arcSize=16;" edge="1" parent="1" source="WKvs6zyEkFsK-xuoxXmz-9" target="WKvs6zyEkFsK-xuoxXmz-5">
          <mxGeometry relative="1" as="geometry">
            <mxPoint x="40" y="330" as="targetPoint" />
          </mxGeometry>
        </mxCell>
        <mxCell id="WKvs6zyEkFsK-xuoxXmz-9" value="&lt;p style=&quot;margin:0px;margin-top:4px;text-align:center;&quot;&gt;&lt;b&gt;Funcionario&lt;/b&gt;&lt;/p&gt;&lt;hr size=&quot;1&quot; style=&quot;border-style:solid;&quot;&gt;&lt;p style=&quot;margin:0px;margin-left:4px;&quot;&gt;+ Foto&lt;/p&gt;&lt;hr size=&quot;1&quot; style=&quot;border-style:solid;&quot;&gt;&lt;p style=&quot;margin:0px;margin-left:4px;&quot;&gt;+ method(): Type&lt;/p&gt;" style="verticalAlign=top;align=left;overflow=fill;html=1;whiteSpace=wrap;labelBackgroundColor=none;rounded=0;arcSize=16;" parent="1" vertex="1">
          <mxGeometry x="10" y="590" width="160" height="90" as="geometry" />
        </mxCell>
        <mxCell id="WKvs6zyEkFsK-xuoxXmz-32" style="edgeStyle=orthogonalEdgeStyle;rounded=0;orthogonalLoop=1;jettySize=auto;html=1;entryX=0.5;entryY=1;entryDx=0;entryDy=0;labelBackgroundColor=none;fontColor=default;arcSize=16;" parent="1" source="WKvs6zyEkFsK-xuoxXmz-11" target="WKvs6zyEkFsK-xuoxXmz-12" edge="1">
          <mxGeometry relative="1" as="geometry" />
        </mxCell>
        <mxCell id="WKvs6zyEkFsK-xuoxXmz-11" value="&lt;p style=&quot;margin:0px;margin-top:4px;text-align:center;&quot;&gt;&lt;b&gt;Estada&lt;/b&gt;&lt;/p&gt;&lt;hr size=&quot;1&quot; style=&quot;border-style:solid;&quot;&gt;&lt;p style=&quot;margin:0px;margin-left:4px;&quot;&gt;+ DataEntrada&lt;/p&gt;&lt;p style=&quot;margin:0px;margin-left:4px;&quot;&gt;+DataSaia&lt;/p&gt;&lt;p style=&quot;margin:0px;margin-left:4px;&quot;&gt;+Funcinarios Responsaveis pelo Registro&lt;/p&gt;&lt;p style=&quot;margin:0px;margin-left:4px;&quot;&gt;+ Tempo Total&lt;/p&gt;&lt;p style=&quot;margin:0px;margin-left:4px;&quot;&gt;+Valor Total&lt;/p&gt;&lt;p style=&quot;margin:0px;margin-left:4px;&quot;&gt;&lt;br&gt;&lt;/p&gt;&lt;hr size=&quot;1&quot; style=&quot;border-style:solid;&quot;&gt;&lt;p style=&quot;margin:0px;margin-left:4px;&quot;&gt;+&amp;nbsp;calcular o tempo da estada()&lt;br&gt;+ calcular valor()&lt;/p&gt;" style="verticalAlign=top;align=left;overflow=fill;html=1;whiteSpace=wrap;labelBackgroundColor=none;rounded=0;arcSize=16;" parent="1" vertex="1">
          <mxGeometry x="470" y="340" width="220" height="200" as="geometry" />
        </mxCell>
        <mxCell id="WKvs6zyEkFsK-xuoxXmz-12" value="&lt;p style=&quot;margin:0px;margin-top:4px;text-align:center;&quot;&gt;&lt;b&gt;Vaga&lt;/b&gt;&lt;/p&gt;&lt;hr size=&quot;1&quot; style=&quot;border-style:solid;&quot;&gt;&lt;p style=&quot;margin:0px;margin-left:4px;&quot;&gt;+ Numero&lt;br&gt;+ Status&lt;/p&gt;&lt;hr size=&quot;1&quot; style=&quot;border-style:solid;&quot;&gt;&lt;p style=&quot;margin:0px;margin-left:4px;&quot;&gt;+ Verificar disponibilidade()&lt;/p&gt;" style="verticalAlign=top;align=left;overflow=fill;html=1;whiteSpace=wrap;labelBackgroundColor=none;rounded=0;arcSize=16;" parent="1" vertex="1">
          <mxGeometry x="502" y="69" width="160" height="90" as="geometry" />
        </mxCell>
        <mxCell id="WKvs6zyEkFsK-xuoxXmz-13" value="&lt;p style=&quot;margin:0px;margin-top:4px;text-align:center;&quot;&gt;&lt;b&gt;Pagamento&lt;/b&gt;&lt;/p&gt;&lt;hr size=&quot;1&quot; style=&quot;border-style:solid;&quot;&gt;&lt;p style=&quot;margin:0px;margin-left:4px;&quot;&gt;+ Valor&lt;br&gt;+ Modalidade/tipo de pagamento&lt;br&gt;+ Data do Pagamento&lt;/p&gt;&lt;hr size=&quot;1&quot; style=&quot;border-style:solid;&quot;&gt;&lt;p style=&quot;margin:0px;margin-left:4px;&quot;&gt;+ Descontos()&lt;/p&gt;" style="verticalAlign=top;align=left;overflow=fill;html=1;whiteSpace=wrap;labelBackgroundColor=none;rounded=0;arcSize=16;" parent="1" vertex="1">
          <mxGeometry x="630" y="630" width="170" height="140" as="geometry" />
        </mxCell>
        <mxCell id="WKvs6zyEkFsK-xuoxXmz-14" value="&lt;p style=&quot;margin:0px;margin-top:4px;text-align:center;&quot;&gt;&lt;b&gt;Veiculo&lt;/b&gt;&lt;/p&gt;&lt;hr size=&quot;1&quot; style=&quot;border-style:solid;&quot;&gt;&lt;p style=&quot;margin:0px;margin-left:4px;&quot;&gt;+ Placa&lt;/p&gt;&lt;p style=&quot;margin:0px;margin-left:4px;&quot;&gt;+ Marca&lt;/p&gt;&lt;p style=&quot;margin:0px;margin-left:4px;&quot;&gt;+ Modelo&lt;/p&gt;&lt;p style=&quot;margin:0px;margin-left:4px;&quot;&gt;+ Cor&lt;/p&gt;&lt;hr size=&quot;1&quot; style=&quot;border-style:solid;&quot;&gt;&lt;p style=&quot;margin:0px;margin-left:4px;&quot;&gt;+ method(): Type&lt;/p&gt;" style="verticalAlign=top;align=left;overflow=fill;html=1;whiteSpace=wrap;labelBackgroundColor=none;rounded=0;arcSize=16;" parent="1" vertex="1">
          <mxGeometry x="330" y="640" width="160" height="120" as="geometry" />
        </mxCell>
        <mxCell id="WKvs6zyEkFsK-xuoxXmz-27" value="" style="edgeStyle=orthogonalEdgeStyle;rounded=0;orthogonalLoop=1;jettySize=auto;html=1;strokeWidth=6;labelBackgroundColor=none;fontColor=default;arcSize=16;" parent="1" source="WKvs6zyEkFsK-xuoxXmz-23" target="WKvs6zyEkFsK-xuoxXmz-6" edge="1">
          <mxGeometry relative="1" as="geometry" />
        </mxCell>
        <mxCell id="WKvs6zyEkFsK-xuoxXmz-29" style="edgeStyle=orthogonalEdgeStyle;rounded=0;orthogonalLoop=1;jettySize=auto;html=1;entryX=0;entryY=0.75;entryDx=0;entryDy=0;labelBackgroundColor=none;fontColor=default;arcSize=16;" parent="1" source="WKvs6zyEkFsK-xuoxXmz-23" target="WKvs6zyEkFsK-xuoxXmz-14" edge="1">
          <mxGeometry relative="1" as="geometry" />
        </mxCell>
        <mxCell id="WKvs6zyEkFsK-xuoxXmz-23" value="&lt;p style=&quot;margin:0px;margin-top:4px;text-align:center;&quot;&gt;&lt;b&gt;Cliente&lt;/b&gt;&lt;/p&gt;&lt;hr size=&quot;1&quot; style=&quot;border-style:solid;&quot;&gt;&lt;p style=&quot;margin:0px;margin-left:4px;&quot;&gt;+ tipo&lt;br&gt;&lt;/p&gt;&lt;hr size=&quot;1&quot; style=&quot;border-style:solid;&quot;&gt;&lt;p style=&quot;margin:0px;margin-left:4px;&quot;&gt;+ method(): Type&lt;/p&gt;" style="verticalAlign=top;align=left;overflow=fill;html=1;whiteSpace=wrap;labelBackgroundColor=none;rounded=0;arcSize=16;" parent="1" vertex="1">
          <mxGeometry x="190" y="395" width="160" height="90" as="geometry" />
        </mxCell>
        <mxCell id="WKvs6zyEkFsK-xuoxXmz-26" style="edgeStyle=orthogonalEdgeStyle;rounded=0;orthogonalLoop=1;jettySize=auto;html=1;entryX=0.944;entryY=1.022;entryDx=0;entryDy=0;entryPerimeter=0;strokeWidth=6;labelBackgroundColor=none;fontColor=default;arcSize=16;" parent="1" source="WKvs6zyEkFsK-xuoxXmz-23" target="WKvs6zyEkFsK-xuoxXmz-5" edge="1">
          <mxGeometry relative="1" as="geometry" />
        </mxCell>
        <mxCell id="WKvs6zyEkFsK-xuoxXmz-30" style="edgeStyle=orthogonalEdgeStyle;rounded=0;orthogonalLoop=1;jettySize=auto;html=1;entryX=0.077;entryY=1.025;entryDx=0;entryDy=0;entryPerimeter=0;labelBackgroundColor=none;fontColor=default;arcSize=16;" parent="1" source="WKvs6zyEkFsK-xuoxXmz-14" target="WKvs6zyEkFsK-xuoxXmz-11" edge="1">
          <mxGeometry relative="1" as="geometry" />
        </mxCell>
        <mxCell id="WKvs6zyEkFsK-xuoxXmz-31" style="edgeStyle=orthogonalEdgeStyle;rounded=0;orthogonalLoop=1;jettySize=auto;html=1;entryX=0.859;entryY=1.02;entryDx=0;entryDy=0;entryPerimeter=0;labelBackgroundColor=none;fontColor=default;arcSize=16;" parent="1" source="WKvs6zyEkFsK-xuoxXmz-13" target="WKvs6zyEkFsK-xuoxXmz-11" edge="1">
          <mxGeometry relative="1" as="geometry" />
        </mxCell>
        <mxCell id="WKvs6zyEkFsK-xuoxXmz-34" value="TEM" style="text;html=1;align=center;verticalAlign=middle;resizable=0;points=[];autosize=1;strokeColor=none;fillColor=none;labelBackgroundColor=none;rounded=0;arcSize=16;" parent="1" vertex="1">
          <mxGeometry x="270" y="570" width="50" height="30" as="geometry" />
        </mxCell>
        <mxCell id="WKvs6zyEkFsK-xuoxXmz-35" value="1,1" style="text;html=1;align=center;verticalAlign=middle;resizable=0;points=[];autosize=1;strokeColor=none;fillColor=none;labelBackgroundColor=none;rounded=0;arcSize=16;" parent="1" vertex="1">
          <mxGeometry x="270" y="488" width="40" height="30" as="geometry" />
        </mxCell>
        <mxCell id="WKvs6zyEkFsK-xuoxXmz-36" value="1,*" style="text;html=1;align=center;verticalAlign=middle;resizable=0;points=[];autosize=1;strokeColor=none;fillColor=none;labelBackgroundColor=none;rounded=0;arcSize=16;" parent="1" vertex="1">
          <mxGeometry x="280" y="700" width="40" height="30" as="geometry" />
        </mxCell>
        <mxCell id="WKvs6zyEkFsK-xuoxXmz-37" value="ESTA" style="text;html=1;align=center;verticalAlign=middle;resizable=0;points=[];autosize=1;strokeColor=none;fillColor=none;labelBackgroundColor=none;rounded=0;arcSize=16;" parent="1" vertex="1">
          <mxGeometry x="419" y="560" width="50" height="30" as="geometry" />
        </mxCell>
        <mxCell id="WKvs6zyEkFsK-xuoxXmz-38" value="Pertence" style="text;html=1;align=center;verticalAlign=middle;resizable=0;points=[];autosize=1;strokeColor=none;fillColor=none;labelBackgroundColor=none;rounded=0;arcSize=16;" parent="1" vertex="1">
          <mxGeometry x="667" y="555" width="70" height="30" as="geometry" />
        </mxCell>
        <mxCell id="WKvs6zyEkFsK-xuoxXmz-39" value="TEM" style="text;html=1;align=center;verticalAlign=middle;resizable=0;points=[];autosize=1;strokeColor=none;fillColor=none;labelBackgroundColor=none;rounded=0;arcSize=16;" parent="1" vertex="1">
          <mxGeometry x="575" y="228" width="50" height="30" as="geometry" />
        </mxCell>
        <mxCell id="WKvs6zyEkFsK-xuoxXmz-41" value="1,1" style="text;html=1;align=center;verticalAlign=middle;resizable=0;points=[];autosize=1;strokeColor=none;fillColor=none;labelBackgroundColor=none;rounded=0;arcSize=16;" parent="1" vertex="1">
          <mxGeometry x="490" y="540" width="40" height="30" as="geometry" />
        </mxCell>
        <mxCell id="WKvs6zyEkFsK-xuoxXmz-42" value="1,*" style="text;html=1;align=center;verticalAlign=middle;resizable=0;points=[];autosize=1;strokeColor=none;fillColor=none;labelBackgroundColor=none;rounded=0;arcSize=16;" parent="1" vertex="1">
          <mxGeometry x="414" y="610" width="40" height="30" as="geometry" />
        </mxCell>
        <mxCell id="WKvs6zyEkFsK-xuoxXmz-43" value="1,1" style="text;html=1;align=center;verticalAlign=middle;resizable=0;points=[];autosize=1;strokeColor=none;fillColor=none;labelBackgroundColor=none;rounded=0;arcSize=16;" parent="1" vertex="1">
          <mxGeometry x="535" y="310" width="40" height="30" as="geometry" />
        </mxCell>
        <mxCell id="WKvs6zyEkFsK-xuoxXmz-44" value="1,*" style="text;html=1;align=center;verticalAlign=middle;resizable=0;points=[];autosize=1;strokeColor=none;fillColor=none;labelBackgroundColor=none;rounded=0;arcSize=16;" parent="1" vertex="1">
          <mxGeometry x="535" y="159" width="40" height="30" as="geometry" />
        </mxCell>
        <mxCell id="WKvs6zyEkFsK-xuoxXmz-45" value="1,1" style="text;html=1;align=center;verticalAlign=middle;resizable=0;points=[];autosize=1;strokeColor=none;fillColor=none;labelBackgroundColor=none;rounded=0;arcSize=16;" parent="1" vertex="1">
          <mxGeometry x="610" y="540" width="40" height="30" as="geometry" />
        </mxCell>
        <mxCell id="WKvs6zyEkFsK-xuoxXmz-46" value="1,*" style="text;html=1;align=center;verticalAlign=middle;resizable=0;points=[];autosize=1;strokeColor=none;fillColor=none;labelBackgroundColor=none;rounded=0;arcSize=16;" parent="1" vertex="1">
          <mxGeometry x="670" y="600" width="40" height="30" as="geometry" />
        </mxCell>
        <mxCell id="WKvs6zyEkFsK-xuoxXmz-51" value="RESPONAVEL" style="text;html=1;align=center;verticalAlign=middle;resizable=0;points=[];autosize=1;strokeColor=none;fillColor=none;labelBackgroundColor=none;rounded=0;arcSize=16;" parent="1" vertex="1">
          <mxGeometry x="350" y="818" width="100" height="30" as="geometry" />
        </mxCell>
        <mxCell id="WKvs6zyEkFsK-xuoxXmz-52" value="1,1" style="text;html=1;align=center;verticalAlign=middle;resizable=0;points=[];autosize=1;strokeColor=none;fillColor=none;labelBackgroundColor=none;rounded=0;arcSize=16;" parent="1" vertex="1">
          <mxGeometry x="180" y="638" width="40" height="30" as="geometry" />
        </mxCell>
        <mxCell id="WKvs6zyEkFsK-xuoxXmz-53" value="1,*" style="text;html=1;align=center;verticalAlign=middle;resizable=0;points=[];autosize=1;strokeColor=none;fillColor=none;labelBackgroundColor=none;rounded=0;arcSize=16;" parent="1" vertex="1">
          <mxGeometry x="540" y="540" width="40" height="30" as="geometry" />
        </mxCell>
      </root>
    </mxGraphModel>
  </diagram>
</mxfile>
